# Blender 3.4.1
# www.blender.org
mtllib muzzleFlash.mtl
o Plane
v -0.500000 0.000000 0.000000
v 0.500000 0.000000 0.000000
v -0.500000 0.000000 -2.000000
v 0.500000 0.000000 -2.000000
vn -0.0000 1.0000 -0.0000
vt 0.195872 0.499813
vt 0.199091 -0.001438
vt 0.800909 0.501438
vt 0.804127 0.000187
s 0
usemtl Material.004
f 1/1/1 2/2/1 4/4/1 3/3/1
o Plane.001
v 0.000000 0.500000 0.000000
v -0.000000 -0.500000 0.000000
v 0.000000 0.500000 -2.000000
v -0.000000 -0.500000 -2.000000
vn 1.0000 -0.0000 -0.0000
vt 0.195886 0.497649
vt 0.199077 0.000726
vt 0.800923 0.499274
vt 0.804114 0.002351
s 0
usemtl Material.004
f 5/5/2 6/6/2 8/8/2 7/7/2
o Plane.002
v 0.300000 -0.000192 0.000000
v -0.300000 -0.000192 0.000000
v 0.300000 -0.519808 -0.300000
v -0.300000 -0.519808 -0.300000
v 0.300000 -0.000192 0.000000
v -0.300000 -0.000192 0.000000
v 0.300000 -0.519808 -0.300000
v -0.300000 -0.519808 -0.300000
v -0.000192 -0.300000 0.000000
v -0.000192 0.300000 0.000000
v -0.519808 -0.300000 -0.300000
v -0.519808 0.300000 -0.300000
vn -0.0000 -0.5000 0.8660
vn -0.5000 -0.0000 0.8660
vt 0.000000 0.000000
vt 1.000000 0.000000
vt 0.000000 1.000000
vt 1.000000 1.000000
vt 0.718750 0.992188
vt 0.218750 0.992188
vt 0.718750 0.492188
vt 0.218750 0.492188
vt 0.718750 0.992188
vt 0.218750 0.992188
vt 0.718750 0.492188
vt 0.218750 0.492188
s 0
usemtl Material.003
f 9/9/3 10/10/3 12/12/3 11/11/3
f 13/13/3 14/14/3 16/16/3 15/15/3
f 17/17/4 18/18/4 20/20/4 19/19/4
o Plane.003
v -0.300000 0.000192 0.000000
v 0.300000 0.000192 0.000000
v -0.300000 0.519808 -0.300000
v 0.300000 0.519808 -0.300000
v 0.000192 0.300000 0.000000
v 0.000192 -0.300000 0.000000
v 0.519808 0.300000 -0.300000
v 0.519808 -0.300000 -0.300000
vn -0.0000 0.5000 0.8660
vn 0.5000 -0.0000 0.8660
vt 0.718750 0.992188
vt 0.218750 0.992188
vt 0.718750 0.492188
vt 0.218750 0.492188
vt 0.718750 0.992188
vt 0.218750 0.992188
vt 0.718750 0.492188
vt 0.218750 0.492188
s 0
usemtl Material.003
f 21/21/5 22/22/5 24/24/5 23/23/5
f 25/25/6 26/26/6 28/28/6 27/27/6
